{"title":"Barry Lyndon [1975] 720p BRRip H264 AC3 - CODY","uid":6921749,"size":3704982142,"categoryP":"video","categoryS":"hd___movies","magnet":"?xt=urn:btih:7b1d68c1093b87c99375f7f323838bbe20ac955c&amp;dn=Barry+Lyndon+%5B1975%5D+720p+BRRip+H264+AC3+-+CODY&amp;tr=udp%3A%2F%2Ftracker.openbittorrent.com%3A80&amp;tr=udp%3A%2F%2Fopen.demonii.com%3A1337&amp;tr=udp%3A%2F%2Ftracker.coppersurfer.tk%3A6969&amp;tr=udp%3A%2F%2Fexodus.desync.com%3A6969","seeders":7,"leechers":2,"uploader":"CODYBOSS1969","files":5,"time":1325298985,"description":"General\nComplete name                            : Barry Lyndon [1975] 720p BRRip H264 AC3 - CODY.mp4\nFormat                                   : MPEG-4\nFormat profile                           : Base Media\nCodec ID                                 : isom\nFile size                                : 3.45 GiB\nDuration                                 : 3h 5mn\nOverall bit rate                         : 2 669 Kbps\nEncoded date                             : UTC 2011-12-30 05:46:44\nTagged date                              : UTC 2011-12-30 05:46:44\n\nVideo\nID                                       : 1\nFormat                                   : AVC\nFormat/Info                              : Advanced Video Codec\nFormat profile                           : &lt;a class=&quot;__cf_email__&quot; href=&quot;/cdn-cgi/l/email-protection&quot; data-cfemail=&quot;3b73525c537b770f150a&quot;&gt;[email&amp;#160;protected]&lt;/a&gt;&lt;script cf-hash='f9e31' type=&quot;text/javascript&quot;&gt;\n/* &lt;![CDATA[ */!function(){try{var t=&quot;currentScript&quot;in document?document.currentScript:function(){for(var t=document.getElementsByTagName(&quot;script&quot;),e=t.length;e--;)if(t[e].getAttribute(&quot;cf-hash&quot;))return t[e]}();if(t&amp;&amp;t.previousSibling){var e,r,n,i,c=t.previousSibling,a=c.getAttribute(&quot;data-cfemail&quot;);if(a){for(e=&quot;&quot;,r=parseInt(a.substr(0,2),16),n=2;a.length-n;n+=2)i=parseInt(a.substr(n,2),16)^r,e+=String.fromCharCode(i);e=document.createTextNode(e),c.parentNode.replaceChild(e,c)}}}catch(u){}}();/* ]]&gt; */&lt;/script&gt;\nFormat settings, CABAC                   : Yes\nFormat settings, ReFrames                : 4 frames\nCodec ID                                 : avc1\nCodec ID/Info                            : Advanced Video Coding\nDuration                                 : 3h 5mn\nBit rate                                 : 2 220 Kbps\nMaximum bit rate                         : 13.9 Mbps\nWidth                                    : 1 280 pixels\nHeight                                   : 720 pixels\nDisplay aspect ratio                     : 16:9\nFrame rate mode                          : Constant\nFrame rate                               : 23.976 fps\nColor space                              : YUV\nChroma subsampling                       : 4:2:0\nBit depth                                : 8 bits\nScan type                                : Progressive\nBits/(Pixel*Frame)                       : 0.100\nStream size                              : 2.87 GiB (83%)\nWriting library                          : x264 core 119 r2106 07efeb4\nEncoding settings                        : cabac=1 / ref=4 / deblock=1:0:0 /\n analyse=0x3:0x113 / me=umh / subme=9 / psy=1 / psy_rd=1.00:1.00 / mixed_ref=1 /\n me_range=16 / chroma_me=1 / trellis=2 / 8x8dct=1 / cqm=0 / deadzone=21,11 / \nfast_pskip=0 / chroma_qp_offset=-6 / threads=12 / sliced_threads=0 / nr=0 /\n decimate=1 / interlaced=0 / bluray_compat=0 / constrained_intra=0 / bframes=4 /\n b_pyramid=2 / b_adapt=2 / b_bias=0 / direct=3 / weightb=1 / open_gop=0 / weightp=2 /\n keyint=250 / keyint_min=23 / scenecut=40 / intra_refresh=0 / rc_lookahead=50 / rc=2pass /\n mbtree=1 / bitrate=2220 / ratetol=1.0 / qcomp=0.85 / qpmin=10 / qpmax=51 /\n qpstep=4 / cplxblur=20.0 / qblur=0.5 /\n vbv_maxrate=40000 / vbv_bufsize=40000 / nal_hrd=none / ip_ratio=1.40 / aq=1:1.00\nEncoded date                             : UTC 2011-12-30 05:46:44\nTagged date                              : UTC 2011-12-30 05:47:52\n\nAudio\nID                                       : 2\nFormat                                   : AC-3\nFormat/Info                              : Audio Coding 3\nMode extension                           : CM (complete main)\nCodec ID                                 : ac-3\nDuration                                 : 3h 5mn\nBit rate mode                            : Constant\nBit rate                                 : 448 Kbps\nChannel(s)                               : 6 channels\nChannel positions                        : Front: L C R, Side: L R, LFE\nSampling rate                            : 48.0 KHz\nBit depth                                : 16 bits\nCompression mode                         : Lossy\nStream size                              : 593 MiB (17%)\nEncoded date                             : UTC 2011-12-30 05:47:07\nTagged date                              : UTC 2011-12-30 05:47:52\n\n\n\n\n\nIMDB link:                                 &lt;a href=&quot; http://www.imdb.com/title/tt0072684/&quot; rel=&quot;nofollow&quot; target=&quot;_NEW&quot;&gt; http://www.imdb.com/title/tt0072684/&lt;/a&gt;\n\n\n\n\nSubtitles included                       : Romanian\n\n\n\n\nPlease seed at least 1,5:1. This way this torrent has a chance to survive!\n\n\n\n\nThanks. Enjoy !!\n","torrent":{"xt":"urn:btih:7b1d68c1093b87c99375f7f323838bbe20ac955c","amp;dn":"Barry+Lyndon+%5B1975%5D+720p+BRRip+H264+AC3+-+CODY","amp;tr":["udp%3A%2F%2Ftracker.openbittorrent.com%3A80","udp%3A%2F%2Fopen.demonii.com%3A1337","udp%3A%2F%2Ftracker.coppersurfer.tk%3A6969","udp%3A%2F%2Fexodus.desync.com%3A6969"],"infoHash":"7b1d68c1093b87c99375f7f323838bbe20ac955c","infoHashBuffer":{"type":"Buffer","data":[123,29,104,193,9,59,135,201,147,117,247,243,35,131,139,190,32,172,149,92]},"announce":[],"urlList":[]}}